<svg xmlns="http://www.w3.org/2000/svg" width="124" height="124" viewBox="0 0 124 124"><g><g><g><path fill="#f66d20" d="M10.333 5.167A5.167 5.167 0 1 1 0 5.167a5.167 5.167 0 0 1 10.333 0z"/></g><g><path fill="#f66d20" d="M10.333 24.107a5.167 5.167 0 1 1-10.333 0 5.167 5.167 0 0 1 10.333 0z"/></g><g><path fill="#f66d20" d="M10.333 43.057a5.167 5.167 0 1 1-10.333 0 5.167 5.167 0 0 1 10.333 0z"/></g><g><path fill="#f66d20" d="M10.333 61.997a5.167 5.167 0 1 1-10.333 0 5.167 5.167 0 0 1 10.333 0z"/></g><g><path fill="#f66d20" d="M10.333 80.947a5.167 5.167 0 1 1-10.333 0 5.167 5.167 0 0 1 10.333 0z"/></g><g><path fill="#f66d20" d="M10.333 99.887a5.167 5.167 0 1 1-10.333 0 5.167 5.167 0 0 1 10.333 0z"/></g><g><path fill="#f66d20" d="M10.333 118.837a5.167 5.167 0 1 1-10.333 0 5.167 5.167 0 0 1 10.333 0z"/></g><g><path fill="#f66d20" d="M29.273 5.167a5.167 5.167 0 1 1-10.333 0 5.167 5.167 0 0 1 10.333 0z"/></g><g><path fill="#f66d20" d="M29.273 24.107a5.167 5.167 0 1 1-10.333 0 5.167 5.167 0 0 1 10.333 0z"/></g><g><path fill="#f66d20" d="M29.273 43.057a5.167 5.167 0 1 1-10.333 0 5.167 5.167 0 0 1 10.333 0z"/></g><g><path fill="#f66d20" d="M29.273 61.997a5.167 5.167 0 1 1-10.333 0 5.167 5.167 0 0 1 10.333 0z"/></g><g><path fill="#f66d20" d="M29.273 80.947a5.167 5.167 0 1 1-10.333 0 5.167 5.167 0 0 1 10.333 0z"/></g><g><path fill="#f66d20" d="M29.273 99.887a5.167 5.167 0 1 1-10.333 0 5.167 5.167 0 0 1 10.333 0z"/></g><g><path fill="#f66d20" d="M29.273 118.837a5.167 5.167 0 1 1-10.333 0 5.167 5.167 0 0 1 10.333 0z"/></g><g><path fill="#f66d20" d="M48.223 5.167a5.167 5.167 0 1 1-10.333 0 5.167 5.167 0 0 1 10.333 0z"/></g><g><path fill="#f66d20" d="M48.223 24.107a5.167 5.167 0 1 1-10.333 0 5.167 5.167 0 0 1 10.333 0z"/></g><g><path fill="#f66d20" d="M48.223 43.057a5.167 5.167 0 1 1-10.333 0 5.167 5.167 0 0 1 10.333 0z"/></g><g><path fill="#f66d20" d="M48.223 61.997a5.167 5.167 0 1 1-10.333 0 5.167 5.167 0 0 1 10.333 0z"/></g><g><path fill="#f66d20" d="M48.223 80.947a5.167 5.167 0 1 1-10.333 0 5.167 5.167 0 0 1 10.333 0z"/></g><g><path fill="#f66d20" d="M48.223 99.887a5.167 5.167 0 1 1-10.333 0 5.167 5.167 0 0 1 10.333 0z"/></g><g><path fill="#f66d20" d="M48.223 118.837a5.167 5.167 0 1 1-10.333 0 5.167 5.167 0 0 1 10.333 0z"/></g><g><path fill="#f66d20" d="M67.163 5.167a5.167 5.167 0 1 1-10.333 0 5.167 5.167 0 0 1 10.333 0z"/></g><g><path fill="#f66d20" d="M67.163 24.107a5.167 5.167 0 1 1-10.333 0 5.167 5.167 0 0 1 10.333 0z"/></g><g><path fill="#f66d20" d="M67.163 43.057a5.167 5.167 0 1 1-10.333 0 5.167 5.167 0 0 1 10.333 0z"/></g><g><path fill="#f66d20" d="M67.163 61.997a5.167 5.167 0 1 1-10.333 0 5.167 5.167 0 0 1 10.333 0z"/></g><g><path fill="#f66d20" d="M67.163 80.947a5.167 5.167 0 1 1-10.333 0 5.167 5.167 0 0 1 10.333 0z"/></g><g><path fill="#f66d20" d="M67.163 99.887a5.167 5.167 0 1 1-10.333 0 5.167 5.167 0 0 1 10.333 0z"/></g><g><path fill="#f66d20" d="M67.163 118.837a5.167 5.167 0 1 1-10.333 0 5.167 5.167 0 0 1 10.333 0z"/></g><g><path fill="#f66d20" d="M86.113 5.167a5.167 5.167 0 1 1-10.333 0 5.167 5.167 0 0 1 10.333 0z"/></g><g><path fill="#f66d20" d="M86.113 24.107a5.167 5.167 0 1 1-10.333 0 5.167 5.167 0 0 1 10.333 0z"/></g><g><path fill="#f66d20" d="M86.113 43.057a5.167 5.167 0 1 1-10.333 0 5.167 5.167 0 0 1 10.333 0z"/></g><g><path fill="#f66d20" d="M86.113 61.997a5.167 5.167 0 1 1-10.333 0 5.167 5.167 0 0 1 10.333 0z"/></g><g><path fill="#f66d20" d="M86.113 80.947a5.167 5.167 0 1 1-10.333 0 5.167 5.167 0 0 1 10.333 0z"/></g><g><path fill="#f66d20" d="M86.113 99.887a5.167 5.167 0 1 1-10.333 0 5.167 5.167 0 0 1 10.333 0z"/></g><g><path fill="#f66d20" d="M86.113 118.837a5.167 5.167 0 1 1-10.333 0 5.167 5.167 0 0 1 10.333 0z"/></g><g><path fill="#f66d20" d="M105.053 5.167a5.167 5.167 0 1 1-10.333 0 5.167 5.167 0 0 1 10.333 0z"/></g><g><path fill="#f66d20" d="M105.053 24.107a5.167 5.167 0 1 1-10.333 0 5.167 5.167 0 0 1 10.333 0z"/></g><g><path fill="#f66d20" d="M105.053 43.057a5.167 5.167 0 1 1-10.333 0 5.167 5.167 0 0 1 10.333 0z"/></g><g><path fill="#f66d20" d="M105.053 61.997a5.167 5.167 0 1 1-10.333 0 5.167 5.167 0 0 1 10.333 0z"/></g><g><path fill="#f66d20" d="M105.053 80.947a5.167 5.167 0 1 1-10.333 0 5.167 5.167 0 0 1 10.333 0z"/></g><g><path fill="#f66d20" d="M105.053 99.887a5.167 5.167 0 1 1-10.333 0 5.167 5.167 0 0 1 10.333 0z"/></g><g><path fill="#f66d20" d="M105.053 118.837a5.167 5.167 0 1 1-10.333 0 5.167 5.167 0 0 1 10.333 0z"/></g><g><path fill="#f66d20" d="M124.003 5.167a5.167 5.167 0 1 1-10.333 0 5.167 5.167 0 0 1 10.333 0z"/></g><g><path fill="#f66d20" d="M124.003 24.107a5.167 5.167 0 1 1-10.333 0 5.167 5.167 0 0 1 10.333 0z"/></g><g><path fill="#f66d20" d="M124.003 43.057a5.167 5.167 0 1 1-10.333 0 5.167 5.167 0 0 1 10.333 0z"/></g><g><path fill="#f66d20" d="M124.003 61.997a5.167 5.167 0 1 1-10.333 0 5.167 5.167 0 0 1 10.333 0z"/></g><g><path fill="#f66d20" d="M124.003 80.947a5.167 5.167 0 1 1-10.333 0 5.167 5.167 0 0 1 10.333 0z"/></g><g><path fill="#f66d20" d="M124.003 99.887a5.167 5.167 0 1 1-10.333 0 5.167 5.167 0 0 1 10.333 0z"/></g><g><path fill="#f66d20" d="M124.003 118.837a5.167 5.167 0 1 1-10.333 0 5.167 5.167 0 0 1 10.333 0z"/></g></g></g></svg>