<svg width="124" height="124" viewBox="0 0 124 124" fill="none" xmlns="http://www.w3.org/2000/svg">
<circle cx="5.16667" cy="5.16667" r="5.16667" fill="#D6D6D6"/>
<circle cx="5.16667" cy="24.111" r="5.16667" fill="#D6D6D6"/>
<circle cx="5.16667" cy="43.0553" r="5.16667" fill="#D6D6D6"/>
<circle cx="5.16667" cy="61.9997" r="5.16667" fill="#D6D6D6"/>
<circle cx="5.16667" cy="80.944" r="5.16667" fill="#D6D6D6"/>
<circle cx="5.16667" cy="99.8893" r="5.16667" fill="#D6D6D6"/>
<circle cx="5.16667" cy="118.834" r="5.16667" fill="#D6D6D6"/>
<circle cx="24.111" cy="5.16667" r="5.16667" fill="#D6D6D6"/>
<circle cx="24.111" cy="24.111" r="5.16667" fill="#D6D6D6"/>
<circle cx="24.111" cy="43.0553" r="5.16667" fill="#D6D6D6"/>
<circle cx="24.111" cy="61.9997" r="5.16667" fill="#D6D6D6"/>
<circle cx="24.111" cy="80.944" r="5.16667" fill="#D6D6D6"/>
<circle cx="24.111" cy="99.8893" r="5.16667" fill="#D6D6D6"/>
<circle cx="24.111" cy="118.834" r="5.16667" fill="#D6D6D6"/>
<circle cx="43.0553" cy="5.16667" r="5.16667" fill="#D6D6D6"/>
<circle cx="43.0553" cy="24.111" r="5.16667" fill="#D6D6D6"/>
<circle cx="43.0553" cy="43.0553" r="5.16667" fill="#D6D6D6"/>
<circle cx="43.0553" cy="61.9997" r="5.16667" fill="#D6D6D6"/>
<circle cx="43.0553" cy="80.944" r="5.16667" fill="#D6D6D6"/>
<circle cx="43.0553" cy="99.8893" r="5.16667" fill="#D6D6D6"/>
<circle cx="43.0553" cy="118.834" r="5.16667" fill="#D6D6D6"/>
<circle cx="62.0002" cy="5.16667" r="5.16667" fill="#D6D6D6"/>
<circle cx="62.0002" cy="24.111" r="5.16667" fill="#D6D6D6"/>
<circle cx="62.0002" cy="43.0553" r="5.16667" fill="#D6D6D6"/>
<circle cx="62.0002" cy="61.9997" r="5.16667" fill="#D6D6D6"/>
<circle cx="62.0002" cy="80.944" r="5.16667" fill="#D6D6D6"/>
<circle cx="62.0002" cy="99.8893" r="5.16667" fill="#D6D6D6"/>
<circle cx="62.0002" cy="118.834" r="5.16667" fill="#D6D6D6"/>
<circle cx="80.9445" cy="5.16667" r="5.16667" fill="#D6D6D6"/>
<circle cx="80.9445" cy="24.111" r="5.16667" fill="#D6D6D6"/>
<circle cx="80.9445" cy="43.0553" r="5.16667" fill="#D6D6D6"/>
<circle cx="80.9445" cy="61.9997" r="5.16667" fill="#D6D6D6"/>
<circle cx="80.9445" cy="80.944" r="5.16667" fill="#D6D6D6"/>
<circle cx="80.9445" cy="99.8893" r="5.16667" fill="#D6D6D6"/>
<circle cx="80.9445" cy="118.834" r="5.16667" fill="#D6D6D6"/>
<circle cx="99.8888" cy="5.16667" r="5.16667" fill="#D6D6D6"/>
<circle cx="99.8888" cy="24.111" r="5.16667" fill="#D6D6D6"/>
<circle cx="99.8888" cy="43.0553" r="5.16667" fill="#D6D6D6"/>
<circle cx="99.8888" cy="61.9997" r="5.16667" fill="#D6D6D6"/>
<circle cx="99.8888" cy="80.944" r="5.16667" fill="#D6D6D6"/>
<circle cx="99.8888" cy="99.8893" r="5.16667" fill="#D6D6D6"/>
<circle cx="99.8888" cy="118.834" r="5.16667" fill="#D6D6D6"/>
<circle cx="118.833" cy="5.16667" r="5.16667" fill="#D6D6D6"/>
<circle cx="118.833" cy="24.111" r="5.16667" fill="#D6D6D6"/>
<circle cx="118.833" cy="43.0553" r="5.16667" fill="#D6D6D6"/>
<circle cx="118.833" cy="61.9997" r="5.16667" fill="#D6D6D6"/>
<circle cx="118.833" cy="80.944" r="5.16667" fill="#D6D6D6"/>
<circle cx="118.833" cy="99.8893" r="5.16667" fill="#D6D6D6"/>
<circle cx="118.833" cy="118.834" r="5.16667" fill="#D6D6D6"/>
</svg>
